<?xml version="1.0" encoding="utf-8"?>
<!-- Generator: Adobe Illustrator 26.0.2, SVG Export Plug-In . SVG Version: 6.00 Build 0)  -->
<svg version="1.1" id="Ebene_1" xmlns="http://www.w3.org/2000/svg" xmlns:xlink="http://www.w3.org/1999/xlink" x="0px" y="0px"
	 viewBox="0 0 50 50" style="enable-background:new 0 0 50 50;" xml:space="preserve">
<g>
	<path d="M25.8,11.2c-0.2-0.2-0.4-0.3-0.7-0.3c-0.3,0-0.5,0.1-0.7,0.3L3.9,31.8c-0.2,0.2-0.3,0.4-0.3,0.7l0.1,12.9
		c0,0.3,0.1,0.5,0.3,0.7c0.2,0.2,0.4,0.3,0.7,0.3l12.9-0.1c0.3,0,0.5-0.1,0.7-0.3l20.4-20.6c0.4-0.4,0.4-1,0-1.4L25.8,11.2z"/>
	<path d="M47.2,11.6l-8.8-8.8c-1.5-1.5-4-1.5-5.5,0l-4.1,4.1c-0.4,0.4-0.4,1,0,1.4l12.8,12.9c0.2,0.2,0.4,0.3,0.7,0.3
		s0.6-0.1,0.7-0.3l4.2-4.1C48.7,15.6,48.7,13.1,47.2,11.6z"/>
</g>
</svg>
