<?xml version="1.0" encoding="utf-8"?>
<!-- Generator: Adobe Illustrator 26.0.2, SVG Export Plug-In . SVG Version: 6.00 Build 0)  -->
<svg version="1.1" id="Ebene_1" xmlns="http://www.w3.org/2000/svg" xmlns:xlink="http://www.w3.org/1999/xlink" x="0px" y="0px"
	 viewBox="0 0 50 50" style="enable-background:new 0 0 50 50;" xml:space="preserve">
<path d="M39.7,3.3H10.3c-3.9,0-7,3.2-7,7v29.5c0,3.9,3.1,7,7,7h29.5c3.9,0,7-3.1,7-7V10.3C46.7,6.4,43.6,3.3,39.7,3.3z M27.6,37.5
	c0,0.4-0.4,0.8-0.8,0.8h-3.5c-0.4,0-0.8-0.4-0.8-0.8V21.4c0-0.4,0.4-0.8,0.8-0.8h3.5c0.4,0,0.8,0.4,0.8,0.8V37.5z M27.6,14.5
	c0,0.4-0.4,0.8-0.8,0.8h-3.5c-0.4,0-0.8-0.4-0.8-0.8v-3.7c0-0.4,0.4-0.8,0.8-0.8h3.5c0.4,0,0.8,0.4,0.8,0.8V14.5z"/>
</svg>
