<?xml version="1.0" encoding="utf-8"?>
<!-- Generator: Adobe Illustrator 26.0.2, SVG Export Plug-In . SVG Version: 6.00 Build 0)  -->
<svg version="1.1" id="Ebene_1" xmlns="http://www.w3.org/2000/svg" xmlns:xlink="http://www.w3.org/1999/xlink" x="0px" y="0px"
	 viewBox="0 0 50 50" style="enable-background:new 0 0 50 50;" xml:space="preserve">
<path d="M48.5,39L29.9,5.7c-0.9-1.8-2.8-3-4.9-3c-2.2,0-4,1.2-5,3l-18.3,33c-0.5,0.9-0.8,1.9-0.8,2.9c0,3,2.4,5.5,5.4,5.6h37.3
	c3.1,0,5.6-2.5,5.6-5.6C49.1,40.7,48.9,39.8,48.5,39z M27.5,39.9c0,0.4-0.3,0.7-0.7,0.7h-3c-0.4,0-0.7-0.3-0.7-0.7v-3.2
	c0-0.4,0.3-0.7,0.7-0.7h3c0.4,0,0.7,0.3,0.7,0.7V39.9z M27.5,31.6c0,0.4-0.3,0.7-0.7,0.7h-3c-0.4,0-0.7-0.3-0.7-0.7V15
	c0-0.4,0.3-0.7,0.7-0.7h3c0.4,0,0.7,0.3,0.7,0.7V31.6z"/>
</svg>
